<svg xmlns="http://www.w3.org/2000/svg" shape-rendering="geometricPrecision" text-rendering="geometricPrecision" image-rendering="optimizeQuality" fill-rule="evenodd" clip-rule="evenodd" viewBox="0 0 512 512.002"><circle fill="#FBD433" transform="matrix(2.6439 -.70843 .70843 2.64391 256 256.001)" r="93.504"/><path fill="#40270E" fill-rule="nonzero" d="M148.542 353.448c-11.076 0-20.055-8.979-20.055-20.054 0-11.076 8.979-20.055 20.055-20.055h214.917c11.075 0 20.054 8.979 20.054 20.055 0 11.075-8.979 20.054-20.054 20.054H148.542zm161.919-125.465c-11.076 0-20.055-8.979-20.055-20.055s8.979-20.055 20.055-20.055h65.814c11.075 0 20.054 8.979 20.054 20.055s-8.979 20.055-20.054 20.055h-65.814zm-174.735 0c-11.076 0-20.055-8.979-20.055-20.055s8.979-20.055 20.055-20.055h64.45c11.076 0 20.055 8.979 20.055 20.055s-8.979 20.055-20.055 20.055h-64.45z"/></svg>